#!OML:ASF F:\VICON\USERDATA\INSTALL\SteveWalk\SteveWalk.ASF
:FULLY-SPECIFIED
:DEGREES
363
root 0.224881 16.2828 34.9664 16.9724 5.42933 -0.28143
lowerback -14.8826 -0.127025 0.758194
upperback -4.63228 -0.357644 2.06269
thorax 3.44912 -0.165177 1.67188
lowerneck -4.44452 -1.75845 -1.71154
upperneck 13.4518 -2.03763 -1.34167
head 4.76887 -1.16072 -0.242395
rclavicle 5.80203e-015 -1.43125e-014
rhumerus -33.189 -23.465 -73.0906
rradius 22.3671
rwrist 6.07143
rhand -16.4578 -34.9224
rfingers 7.12502
rthumb 9.75847 -64.6764
lclavicle 5.80203e-015 -1.43125e-014
lhumerus -34.8006 7.22666 85.6051
lradius 22.7584
lwrist -6.11308
lhand -19.4987 -17.8343
lfingers 7.12502
lthumb 6.82376 12.0358
rfemur -30.8944 -3.3683 26.5358
rtibia 34.3539
rfoot -20.4128 4.69273
rtoes -0.630406
lfemur -40.6617 3.33288 -19.6301
ltibia 72.0826
lfoot -4.51272 1.61352
ltoes -3.13467
364
root 0.233673 16.2877 35.1691 16.957 5.20908 -0.0104024
lowerback -14.9791 -0.175846 0.534047
upperback -4.63455 -0.386925 1.9581
thorax 3.5001 -0.180283 1.68392
lowerneck -4.1296 -1.55101 -1.40925
upperneck 13.4021 -1.74411 -1.71059
head 4.69329 -1.02212 -0.386485
rclavicle 3.37934e-015 1.66979e-014
rhumerus -31.8116 -21.1029 -74.8899
rradius 24.052
rwrist 3.09064
rhand -16.7651 -34.7018
rfingers 7.12502
rthumb 9.46201 -64.4694
lclavicle 3.37934e-015 1.66979e-014
lhumerus -35.4778 9.41933 84.3054
lradius 20.5603
lwrist -8.97427
lhand -19.0478 -18.0976
lfingers 7.12502
lthumb 7.25899 11.7579
rfemur -29.9212 -3.88166 26.2832
rtibia 34.1305
rfoot -20.9639 5.40037
rtoes 0.665038
lfemur -41.6886 3.19325 -20.1854
ltibia 70.9406
lfoot -5.44245 2.41815
ltoes -3.07223
365
root 0.233537 16.2831 35.3639 16.9392 4.96331 0.0308839
lowerback -14.7608 -0.172385 0.452203
upperback -4.75481 -0.362999 1.91615
thorax 3.25593 -0.167886 1.68971
lowerneck -4.21125 -1.45041 -1.24066
upperneck 13.8 -1.58467 -1.94157
head 4.82603 -0.953034 -0.480208
rclavicle -3.4601e-015 2.38542e-014
rhumerus -30.7211 -18.8731 -76.3834
rradius 25.8417
rwrist 0.338603
rhand -16.9836 -34.1589
rfingers 7.12502
rthumb 9.25119 -63.936
lclavicle -3.4601e-015 2.38542e-014
lhumerus -36.4046 11.6767 82.7218
lradius 18.7549
lwrist -12.3894
lhand -17.9755 -17.9369
lfingers 7.12502
lthumb 8.294 11.8803
rfemur -29.0568 -4.15595 26.2862
rtibia 33.983
rfoot -21.5782 5.85423
rtoes 1.29334
lfemur -42.8142 3.14302 -20.4267
ltibia 69.684
lfoot -6.18112 3.11604
ltoes -3.12581
366
root 0.24336 16.275 35.5781 17.0428 4.87627 0.0440289
lowerback -14.9646 -0.134548 0.619276
upperback -4.76482 -0.33723 1.84139
thorax 3.35279 -0.155783 1.52151
lowerneck -4.60806 -1.40678 -1.17005
upperneck 14.213 -1.49073 -2.13447
head 5.01882 -0.920836 -0.552476
rclavicle 9.9206e-015 7.95139e-016
rhumerus -29.5054 -16.7988 -77.6812
rradius 27.4749
rwrist -2.3482
rhand -17.7443 -33.5711
rfingers 7.12502
rthumb 8.51714 -63.3793
lclavicle 9.9206e-015 7.95139e-016
lhumerus -37.3412 13.8262 81.1009
lradius 17.3157
lwrist -15.9827
lhand -16.7802 -17.6546
lfingers 7.12502
lthumb 9.44745 12.1137
rfemur -28.2648 -4.95096 26.3864
rtibia 33.8664
rfoot -22.5711 6.19854
rtoes -1.31447
lfemur -43.8778 2.99076 -20.6539
ltibia 68.2526
lfoot -6.9101 3.86337
ltoes -2.31773
367
root 0.244015 16.2544 35.786 17.1686 4.56863 0.0333944
lowerback -15.1707 -0.0676783 0.622879
upperback -4.78611 -0.250708 1.78879
thorax 3.43874 -0.113258 1.48
lowerneck -4.71366 -1.27781 -1.07564
upperneck 14.3657 -1.30335 -2.25457
head 5.08328 -0.8337 -0.59646
rclavicle -8.82728e-015 7.15625e-015
rhumerus -28.4492 -14.7704 -78.7792
rradius 29.1758
rwrist -4.71673
rhand -17.8199 -33.3046
rfingers 7.12502
rthumb 8.44413 -63.1158
lclavicle -8.82728e-015 7.15625e-015
lhumerus -38.4968 16.3277 79.0451
lradius 15.8937
lwrist -19.9772
lhand -15.9577 -17.8846
lfingers 7.12502
lthumb 10.2409 11.8461
rfemur -27.5567 -5.17477 26.4145
rtibia 33.842
rfoot -23.4289 5.93725
rtoes -5.4841
lfemur -44.9022 3.02575 -20.8534
ltibia 66.6735
lfoot -7.41631 4.5332
ltoes -3.26245
368
root 0.246731 16.2291 35.9826 17.263 4.26382 -0.230477
lowerback -15.3123 0.0178218 0.890226
upperback -4.78698 -0.181372 1.79826
thorax 3.51132 -0.0793239 1.35154
lowerneck -4.6169 -1.12329 -0.966696
upperneck 14.2682 -1.10306 -2.29284
head 5.03683 -0.730977 -0.613494
rclavicle -1.55301e-016 -8.74653e-015
rhumerus -27.3564 -12.7392 -79.822
rradius 30.8564
rwrist -7.07541
rhand -17.7172 -33.4174
rfingers 7.12502
rthumb 8.5433 -63.2246
lclavicle -1.55301e-016 -8.74653e-015
lhumerus -39.7721 19.0492 76.6553
lradius 14.6677
lwrist -24.7052
lhand -15.1662 -17.7649
lfingers 7.12502
lthumb 11.0044 11.9267
rfemur -26.9088 -5.27239 26.7009
rtibia 33.883
rfoot -24.1436 5.90012
rtoes -7.17087
lfemur -45.8668 3.08778 -20.7394
ltibia 64.9163
lfoot -7.85684 5.11948
ltoes -4.84768
369
root 0.260572 16.2064 36.1725 17.4177 4.01784 -0.106344
lowerback -15.4553 0.0170603 0.93841
upperback -4.7092 -0.188972 1.66826
thorax 3.6696 -0.083903 1.18697
lowerneck -4.94672 -1.04111 -0.921063
upperneck 14.3368 -0.994721 -2.25505
head 5.11481 -0.675898 -0.605744
rclavicle 1.43125e-014 -3.18055e-015
rhumerus -26.1348 -10.9261 -80.8312
rradius 32.6083
rwrist -9.10411
rhand -18.1855 -32.9177
rfingers 7.12502
rthumb 8.0913 -62.7428
lclavicle 1.43125e-014 -3.18055e-015
lhumerus -40.887 21.3377 74.4645
lradius 13.8211
lwrist -28.3672
lhand -14.0025 -17.4163
lfingers 7.12502
lthumb 12.1267 12.2123
rfemur -26.325 -5.78272 26.5616
rtibia 33.8305
rfoot -24.735 7.12405
rtoes -2.93582
lfemur -46.7581 2.90394 -21.0686
ltibia 62.8855
lfoot -7.91703 5.81682
ltoes -5.53974
370
root 0.268882 16.1873 36.3524 17.4922 3.54896 0.152049
lowerback -14.9238 0.112738 0.843386
upperback -4.96242 -0.0246548 1.45224
thorax 3.11588 -0.00368841 1.04013
lowerneck -4.87381 -1.04018 -0.902425
upperneck 14.433 -0.993092 -2.26791
head 5.13191 -0.675565 -0.612821
rclavicle -3.10601e-017 5.56597e-015
rhumerus -25.6819 -9.3704 -81.5267
rradius 34.6625
rwrist -10.6051
rhand -18.2574 -32.7487
rfingers 7.12502
rthumb 8.02193 -62.5764
lclavicle -3.10601e-017 5.56597e-015
lhumerus -42.5715 22.7214 72.424
lradius 13.1643
lwrist -30.7832
lhand -13.1584 -17.2943
lfingers 7.12502
lthumb 12.9405 12.2844
rfemur -25.7252 -6.0435 26.2336
rtibia 33.9042
rfoot -25.2817 8.03032
rtoes 1.37562
lfemur -47.4716 2.82737 -21.5191
ltibia 60.4727
lfoot -7.87176 6.49943
ltoes -7.07198
371
root 0.299321 16.1853 36.5738 17.6995 3.5147 -0.142572
lowerback -15.2952 0.21757 1.63742
upperback -5.0503 -0.00561505 1.37103
thorax 3.22097 0.00297766 0.510896
lowerneck -4.57233 -0.9611 -0.707262
upperneck 14.2207 -0.881954 -2.50355
head 5.01335 -0.622097 -0.708493
rclavicle -9.79014e-015 -1.15295e-014
rhumerus -25.1944 -7.6366 -82.1106
rradius 36.7305
rwrist -12.0605
rhand -17.8814 -33.4949
rfingers 7.12502
rthumb 8.38478 -63.3085
lclavicle -9.79014e-015 -1.15295e-014
lhumerus -44.324 23.8561 70.4573
lradius 12.5262
lwrist -33.3376
lhand -13.2934 -17.9282
lfingers 7.12502
lthumb 12.8104 11.6587
rfemur -24.9287 -7.6912 26.6633
rtibia 33.6915
rfoot -26.0488 9.37218
rtoes 2.00142
lfemur -48.0659 2.48405 -21.3227
ltibia 57.8416
lfoot -8.3536 6.97606
ltoes -9.36603
372
root 0.259576 16.1755 36.7722 17.6953 1.36425 1.07345
lowerback -15.0936 0.442272 -0.528194
upperback -4.96546 0.621009 1.06267
thorax 3.18496 0.317535 1.52108
lowerneck -4.51765 -0.788923 -0.519594
upperneck 13.9097 -0.641661 -2.74672
head 4.90855 -0.506446 -0.799159
rclavicle -8.11911e-015 -1.11319e-014
rhumerus -24.2993 -6.01412 -82.6583
rradius 38.6164
rwrist -13.4334
rhand -17.5695 -34.3776
rfingers 7.12502
rthumb 8.68584 -64.1789
lclavicle -8.11911e-015 -1.11319e-014
lhumerus -45.9242 24.9761 68.669
lradius 12.2674
lwrist -35.8028
lhand -13.6625 -18.5169
lfingers 7.12502
lthumb 12.4545 11.092
rfemur -24.0785 -5.41415 24.8692
rtibia 33.4763
rfoot -26.236 7.81648
rtoes -1.14148
lfemur -48.1194 3.4903 -22.931
ltibia 54.7584
lfoot -8.44083 7.66529
ltoes -12.2245
373
root 0.282185 16.1681 37.0131 18.0525 1.6024 0.355957
lowerback -16.0935 0.481533 0.506359
upperback -4.8264 0.500187 1.20342
thorax 3.87774 0.253795 1.07524
lowerneck -4.71793 -0.69035 -0.526123
upperneck 13.8347 -0.499846 -2.79675
head 4.92108 -0.44114 -0.806285
rclavicle 1.00448e-014 -1.55052e-014
rhumerus -23.3403 -4.51411 -83.0619
rradius 40.3773
rwrist -14.5378
rhand -17.2228 -34.963
rfingers 7.12502
rthumb 9.02035 -64.7502
lclavicle 1.00448e-014 -1.55052e-014
lhumerus -47.1817 25.2756 67.7288
lradius 12.1304
lwrist -36.8024
lhand -14.211 -19.3008
lfingers 7.12502
lthumb 11.9256 10.3395
rfemur -23.2257 -6.79431 25.7242
rtibia 32.9564
rfoot -26.8373 9.29817
rtoes 0.847133
lfemur -48.5816 3.30966 -22.267
ltibia 51.7284
lfoot -8.37645 8.00204
ltoes -13.6035
374
root 0.299437 16.157 37.2265 18.1933 1.39837 0.181991
lowerback -16.2625 0.507831 0.798506
upperback -4.84625 0.483369 1.24264
thorax 3.94919 0.245561 0.94972
lowerneck -4.87015 -0.622313 -0.529772
upperneck 13.9066 -0.384944 -2.93353
head 4.97023 -0.39557 -0.842683
rclavicle -5.37961e-015 -8.74653e-015
rhumerus -22.628 -2.89193 -83.3928
rradius 41.9975
rwrist -15.9346
rhand -18.7937 -33.6096
rfingers 7.12502
rthumb 7.50426 -63.4565
lclavicle -5.37961e-015 -8.74653e-015
lhumerus -48.4459 25.0088 67.3332
lradius 12.1604
lwrist -36.556
lhand -14.5445 -19.4167
lfingers 7.12502
lthumb 11.604 10.2421
rfemur -22.3348 -7.31508 25.7499
rtibia 32.5785
rfoot -26.9895 10.9399
rtoes 5.89502
lfemur -48.7458 3.10248 -22.0823
ltibia 48.408
lfoot -8.3268 8.24673
ltoes -11.5511
375
root 0.312239 16.1325 37.4232 18.1177 0.945481 0.0825209
lowerback -15.9104 0.604991 0.900963
upperback -4.89727 0.601424 1.23929
thorax 3.70706 0.303681 0.905778
lowerneck -4.81148 -0.584787 -0.457592
upperneck 13.7504 -0.323052 -3.10773
head 4.91228 -0.370267 -0.903916
rclavicle -1.18028e-016 -5.1684e-015
rhumerus -22.1477 -1.13058 -83.7498
rradius 43.611
rwrist -18.0802
rhand -21.1631 -30.6145
rfingers 7.12502
rthumb 5.21688 -60.5303
lclavicle -1.18028e-016 -5.1684e-015
lhumerus -49.5907 23.9533 67.7224
lradius 12.475
lwrist -35.2449
lhand -14.8041 -19.0536
lfingers 7.12502
lthumb 11.3537 10.619
rfemur -21.0464 -7.8011 25.7271
rtibia 31.8547
rfoot -27.6242 10.7961
rtoes 3.05834
lfemur -48.7055 3.04662 -21.9408
ltibia 45.0959
lfoot -8.14223 8.48855
ltoes -10.0407
